<svg xmlns="http://www.w3.org/2000/svg" xmlns:xlink="http://www.w3.org/1999/xlink" width="128" height="128"><defs><clipPath id="d"><path d="M80 28H48c-7.73 0-14 6.27-14 14s6.27 14 14 14h32c7.73 0 14-6.27 14-14s-6.27-14-14-14zm0 0"/></clipPath><clipPath id="k"><path d="M0 0h128v128H0z"/></clipPath><clipPath id="s"><path d="M34 70h28v26H34zm0 0"/></clipPath><clipPath id="t"><path d="M48 68h32c7.73 0 14 6.27 14 14s-6.27 14-14 14H48c-7.73 0-14-6.27-14-14s6.27-14 14-14zm0 0"/></clipPath><clipPath id="m"><path d="M0 0h128v128H0z"/></clipPath><clipPath id="c"><path d="M66 30h28v26H66zm0 0"/></clipPath><clipPath id="r"><path d="M80 28H48c-7.73 0-14 6.27-14 14s6.27 14 14 14h32c7.73 0 14-6.27 14-14s-6.27-14-14-14zm0 0"/></clipPath><clipPath id="e"><path d="M34 70h28v26H34zm0 0"/></clipPath><clipPath id="f"><path d="M48 68h32c7.73 0 14 6.27 14 14s-6.27 14-14 14H48c-7.73 0-14-6.27-14-14s6.27-14 14-14zm0 0"/></clipPath><clipPath id="a"><path d="M0 0h128v128H0z"/></clipPath><clipPath id="q"><path d="M66 30h28v26H66zm0 0"/></clipPath><clipPath id="g"><path d="M0 0h128v128H0z"/></clipPath><g id="i" clip-path="url(#a)"><path d="M20 32h88a8 8 0 018 8v68a8 8 0 01-8 8H20a8 8 0 01-8-8V40a8 8 0 018-8zm0 0" fill="url(#b)"/><path d="M20 12h88a8 8 0 018 8v84a8 8 0 01-8 8H20a8 8 0 01-8-8V20a8 8 0 018-8zm0 0" fill="#f6f5f4"/><path d="M48 26c-7.758 0-14 6.242-14 14 0 .336.027.668.05 1 .513-7.285 6.532-13 13.95-13h32a13.955 13.955 0 0113.95 13c.023-.332.05-.664.05-1 0-7.758-6.242-14-14-14zm0 0" fill="#1a5fb4"/><path d="M80 28H48c-7.73 0-14 6.27-14 14s6.27 14 14 14h32c7.73 0 14-6.27 14-14s-6.27-14-14-14zm0 0" fill="#3584e4"/><g clip-path="url(#c)"><g clip-path="url(#d)"><path d="M66 44c0 7.73 6.27 14 14 14s14-6.27 14-14-6.27-14-14-14-14 6.27-14 14zm0 0" fill="#deddda"/></g></g><path d="M94 38H66v6h28zm0 0" fill="#deddda"/><path d="M66 38c0 7.73 6.27 14 14 14s14-6.27 14-14-6.27-14-14-14-14 6.27-14 14zm0 0" fill="#fff"/><path d="M80 66c7.758 0 14 6.242 14 14 0 .336-.027.668-.05 1A13.955 13.955 0 0080 68H48a13.955 13.955 0 00-13.95 13c-.023-.332-.05-.664-.05-1 0-7.758 6.242-14 14-14zm0 0" fill="#9a9996"/><path d="M48 68h32c7.73 0 14 6.27 14 14s-6.27 14-14 14H48c-7.73 0-14-6.27-14-14s6.27-14 14-14zm0 0" fill="#c0bfbc"/><g clip-path="url(#e)"><g clip-path="url(#f)"><path d="M62 84c0 7.73-6.27 14-14 14s-14-6.27-14-14 6.27-14 14-14 14 6.27 14 14zm0 0" fill="#deddda"/></g></g><path d="M34 78h28v6H34zm0 0" fill="#deddda"/><path d="M62 78c0 7.73-6.27 14-14 14s-14-6.27-14-14 6.27-14 14-14 14 6.27 14 14zm0 0" fill="#fff"/></g><g id="n" clip-path="url(#k)"><path d="M128 80.64V128H0V80.64zm0 0" fill="url(#l)"/><path d="M13.309 80.64L60.664 128H81.88l-47.36-47.36zm42.421 0L103.094 128h21.215L76.945 80.64zm42.43 0L128 110.48V89.27l-8.629-8.63zM0 88.548v21.215L18.238 128h21.215zm0 0"/></g><g id="j" clip-path="url(#g)" filter="url(#h)"><use xlink:href="#i"/></g><g id="u" clip-path="url(#m)"><use xlink:href="#n" mask="url(#o)"/></g><linearGradient id="l" gradientUnits="userSpaceOnUse" x1="300" y1="235" x2="428" y2="235" gradientTransform="matrix(0 .37 -.98462 0 295.385 -30.36)"><stop offset="0" stop-color="#f9f06b"/><stop offset="1" stop-color="#f5c211"/></linearGradient><linearGradient id="b" gradientUnits="userSpaceOnUse" x1="48" y1="44" x2="464" y2="44" gradientTransform="matrix(.25 0 0 .25 0 53)"><stop offset="0" stop-color="#babdb6"/><stop offset=".042" stop-color="#f6f5f4"/><stop offset=".083" stop-color="#d5d3cf"/><stop offset=".917" stop-color="#deddda"/><stop offset=".958" stop-color="#f6f5f4"/><stop offset="1" stop-color="#babdb6"/></linearGradient><linearGradient id="p" gradientUnits="userSpaceOnUse" x1="48" y1="44" x2="464" y2="44" gradientTransform="matrix(.25 0 0 .25 0 53)"><stop offset="0" stop-color="#babdb6"/><stop offset=".042" stop-color="#f6f5f4"/><stop offset=".083" stop-color="#d5d3cf"/><stop offset=".917" stop-color="#deddda"/><stop offset=".958" stop-color="#f6f5f4"/><stop offset="1" stop-color="#babdb6"/></linearGradient><mask id="o"><g filter="url(#h)"><path fill-opacity=".8" d="M0 0h128v128H0z"/></g></mask><mask id="v"><use xlink:href="#j"/></mask><filter id="h" filterUnits="objectBoundingBox" x="0%" y="0%" width="100%" height="100%"><feColorMatrix in="SourceGraphic" values="0 0 0 0 1 0 0 0 0 1 0 0 0 0 1 0 0 0 1 0"/></filter></defs><path d="M20 32h88a8 8 0 018 8v68a8 8 0 01-8 8H20a8 8 0 01-8-8V40a8 8 0 018-8zm0 0" fill="url(#p)"/><path d="M20 12h88a8 8 0 018 8v84a8 8 0 01-8 8H20a8 8 0 01-8-8V20a8 8 0 018-8zm0 0" fill="#f6f5f4"/><path d="M48 26c-7.758 0-14 6.242-14 14 0 .336.027.668.05 1 .513-7.285 6.532-13 13.95-13h32a13.955 13.955 0 0113.95 13c.023-.332.05-.664.05-1 0-7.758-6.242-14-14-14zm0 0" fill="#1a5fb4"/><path d="M80 28H48c-7.73 0-14 6.27-14 14s6.27 14 14 14h32c7.73 0 14-6.27 14-14s-6.27-14-14-14zm0 0" fill="#3584e4"/><g clip-path="url(#q)"><g clip-path="url(#r)"><path d="M66 44c0 7.73 6.27 14 14 14s14-6.27 14-14-6.27-14-14-14-14 6.27-14 14zm0 0" fill="#deddda"/></g></g><path d="M94 38H66v6h28zm0 0" fill="#deddda"/><path d="M66 38c0 7.73 6.27 14 14 14s14-6.27 14-14-6.27-14-14-14-14 6.27-14 14zm0 0" fill="#fff"/><path d="M80 66c7.758 0 14 6.242 14 14 0 .336-.027.668-.05 1A13.955 13.955 0 0080 68H48a13.955 13.955 0 00-13.95 13c-.023-.332-.05-.664-.05-1 0-7.758 6.242-14 14-14zm0 0" fill="#9a9996"/><path d="M48 68h32c7.73 0 14 6.27 14 14s-6.27 14-14 14H48c-7.73 0-14-6.27-14-14s6.27-14 14-14zm0 0" fill="#c0bfbc"/><g clip-path="url(#s)"><g clip-path="url(#t)"><path d="M62 84c0 7.73-6.27 14-14 14s-14-6.27-14-14 6.27-14 14-14 14 6.27 14 14zm0 0" fill="#deddda"/></g></g><path d="M34 78h28v6H34zm0 0" fill="#deddda"/><path d="M62 78c0 7.73-6.27 14-14 14s-14-6.27-14-14 6.27-14 14-14 14 6.27 14 14zm0 0" fill="#fff"/><use xlink:href="#u" mask="url(#v)"/></svg>